<svg width="25" height="24" viewBox="0 0 25 24" fill="none" xmlns="http://www.w3.org/2000/svg">
<path d="M23.5 12C23.5 5.92491 18.5751 1 12.5 1C6.42491 1 1.5 5.92491 1.5 12C1.5 17.4904 5.52256 22.0412 10.7812 22.8664V15.1797H7.98828V12H10.7812V9.57656C10.7812 6.81969 12.4235 5.29688 14.9362 5.29688C16.1396 5.29688 17.3984 5.51172 17.3984 5.51172V8.21875H16.0114C14.6449 8.21875 14.2188 9.0667 14.2188 9.93664V12H17.2695L16.7818 15.1797H14.2188V22.8664C19.4774 22.0412 23.5 17.4905 23.5 12Z" fill="#1877F2"/>
<path d="M16.7101 15.1797L17.1978 12H14.147V9.93664C14.147 9.06661 14.5731 8.21875 15.9396 8.21875H17.3267V5.51172C17.3267 5.51172 16.0678 5.29688 14.8643 5.29688C12.3517 5.29688 10.7095 6.81969 10.7095 9.57656V12H7.9165V15.1797H10.7095V22.8664C11.2781 22.9555 11.8527 23.0002 12.4282 23C13.0037 23.0002 13.5784 22.9555 14.147 22.8664V15.1797H16.7101Z" fill="white"/>
</svg>
