<svg width="49" height="48" viewBox="0 0 49 48" fill="none" xmlns="http://www.w3.org/2000/svg">
<g clip-path="url(#clip0_114_1549)">
<path d="M24.5 48C18.1348 48 12.0303 45.4714 7.52944 40.9706C3.02856 36.4697 0.5 30.3652 0.5 24C0.5 17.6348 3.02856 11.5303 7.52944 7.02944C12.0303 2.52856 18.1348 0 24.5 0C30.8652 0 36.9697 2.52856 41.4706 7.02944C45.9714 11.5303 48.5 17.6348 48.5 24C48.5 30.3652 45.9714 36.4697 41.4706 40.9706C36.9697 45.4714 30.8652 48 24.5 48ZM43.1 28.8C43.9119 25.6515 43.9119 22.3485 43.1 19.2H33.932C34.1544 22.3961 34.1544 25.6039 33.932 28.8H43.1ZM41.132 33.6H33.404C33.002 36.4929 32.2359 39.3233 31.124 42.024C35.3401 40.4687 38.8802 37.489 41.132 33.6ZM19.892 28.8H29.108C29.3685 25.6053 29.3685 22.3947 29.108 19.2H19.892C19.6315 22.3947 19.6315 25.6053 19.892 28.8ZM20.492 33.6C21.476 39.36 23.204 43.2 24.5 43.2C25.796 43.2 27.524 39.36 28.508 33.6H20.492ZM5.9 28.8H15.068C14.8456 25.6039 14.8456 22.3961 15.068 19.2H5.9C5.08814 22.3485 5.08814 25.6515 5.9 28.8ZM7.868 33.6C10.1198 37.489 13.6599 40.4687 17.876 42.024C16.868 39.72 16.1 36.84 15.596 33.6H7.868ZM41.132 14.4C38.8802 10.5111 35.3401 7.53129 31.124 5.976C32.132 8.28 32.9 11.16 33.404 14.4H41.132ZM20.492 14.4H28.508C27.524 8.64 25.796 4.8 24.5 4.8C23.204 4.8 21.476 8.64 20.492 14.4ZM7.868 14.4H15.596C16.076 11.16 16.868 8.28 17.876 5.976C13.6599 7.53129 10.1198 10.5111 7.868 14.4Z" fill="#323270"/>
</g>
<defs>
<clipPath id="clip0_114_1549">
<rect width="48" height="48" fill="white" transform="translate(0.5)"/>
</clipPath>
</defs>
</svg>
