<svg width="136" height="136" viewBox="0 0 136 136" fill="none" xmlns="http://www.w3.org/2000/svg">
<rect x="4" y="4" width="128" height="128" rx="64" fill="#EFEFFF" fill-opacity="0.5" stroke="#323270" stroke-width="8"/>
<g clip-path="url(#clip0_114_1296)">
<path d="M67.5 91C61.1348 91 55.0303 88.4714 50.5294 83.9706C46.0286 79.4697 43.5 73.3652 43.5 67C43.5 60.6348 46.0286 54.5303 50.5294 50.0294C55.0303 45.5286 61.1348 43 67.5 43C73.8652 43 79.9697 45.5286 84.4706 50.0294C88.9714 54.5303 91.5 60.6348 91.5 67C91.5 73.3652 88.9714 79.4697 84.4706 83.9706C79.9697 88.4714 73.8652 91 67.5 91ZM86.1 71.8C86.9119 68.6515 86.9119 65.3485 86.1 62.2H76.932C77.1544 65.3961 77.1544 68.6039 76.932 71.8H86.1ZM84.132 76.6H76.404C76.002 79.4929 75.2359 82.3233 74.124 85.024C78.3401 83.4687 81.8802 80.489 84.132 76.6ZM62.892 71.8H72.108C72.3685 68.6053 72.3685 65.3947 72.108 62.2H62.892C62.6315 65.3947 62.6315 68.6053 62.892 71.8ZM63.492 76.6C64.476 82.36 66.204 86.2 67.5 86.2C68.796 86.2 70.524 82.36 71.508 76.6H63.492ZM48.9 71.8H58.068C57.8456 68.6039 57.8456 65.3961 58.068 62.2H48.9C48.0881 65.3485 48.0881 68.6515 48.9 71.8ZM50.868 76.6C53.1198 80.489 56.6599 83.4687 60.876 85.024C59.868 82.72 59.1 79.84 58.596 76.6H50.868ZM84.132 57.4C81.8802 53.5111 78.3401 50.5313 74.124 48.976C75.132 51.28 75.9 54.16 76.404 57.4H84.132ZM63.492 57.4H71.508C70.524 51.64 68.796 47.8 67.5 47.8C66.204 47.8 64.476 51.64 63.492 57.4ZM50.868 57.4H58.596C59.076 54.16 59.868 51.28 60.876 48.976C56.6599 50.5313 53.1198 53.5111 50.868 57.4Z" fill="#323270"/>
</g>
<defs>
<clipPath id="clip0_114_1296">
<rect width="48" height="48" fill="white" transform="translate(43.5 43)"/>
</clipPath>
</defs>
</svg>
