<svg width="14" height="14" viewBox="0 0 14 14" fill="none" xmlns="http://www.w3.org/2000/svg">
<path opacity="0.5" d="M6.34592 2.56945C4.62348 3.67194 3.76248 5.00063 3.76248 6.55376C3.76248 7.03719 3.84692 7.27869 4.01492 7.27869L4.18817 7.23188C4.32467 7.17938 4.43448 7.15313 4.51892 7.15313C5.01198 7.15313 5.42455 7.33251 5.75486 7.69126C6.08561 8.05001 6.25098 8.49188 6.25098 9.01951C6.25098 9.52569 6.07161 9.95576 5.71505 10.3088C5.35805 10.6619 4.92755 10.8382 4.42355 10.8382C3.72005 10.8382 3.13948 10.5494 2.6823 9.97063C2.22598 9.39313 1.99805 8.66688 1.99805 7.79319C1.99805 6.80444 2.19142 5.90013 2.57992 5.07938C2.9693 4.25907 3.56167 3.51751 4.35967 2.85469C5.15767 2.19232 5.66692 1.86069 5.88742 1.86069C6.03442 1.86069 6.15517 1.93157 6.24967 2.07332C6.34417 2.21463 6.39142 2.33801 6.39142 2.44301L6.34461 2.56901L6.34592 2.56945ZM12.0159 2.56945C10.2935 3.67194 9.43292 5.0002 9.43292 6.55419C9.43292 7.03763 9.51736 7.27913 9.68536 7.27913L9.85861 7.23232C9.99511 7.17982 10.1049 7.15357 10.1894 7.15357C10.6719 7.15357 11.0819 7.33294 11.4174 7.69169C11.7543 8.05044 11.9214 8.49232 11.9214 9.01994C11.9214 9.52613 11.742 9.95619 11.3855 10.3093C11.0285 10.6623 10.598 10.8386 10.094 10.8386C9.39048 10.8386 8.80992 10.5499 8.35273 9.97107C7.89642 9.39357 7.66848 8.66732 7.66848 7.79363C7.66848 6.79438 7.86448 5.88176 8.25911 5.05663C8.65286 4.23107 9.24567 3.49169 10.0384 2.83982C10.8325 2.18751 11.3387 1.86113 11.5587 1.86113C11.7062 1.86113 11.8269 1.93201 11.9219 2.07376C12.0159 2.21551 12.0632 2.33888 12.0632 2.44388L12.0159 2.56945Z" fill="#999999" stroke="#999999" stroke-width="0.7"/>
</svg>
