<svg width="50" height="58" viewBox="0 0 50 58" fill="none" xmlns="http://www.w3.org/2000/svg">
<path d="M37.5714 3C42.7768 3 47 7.36719 47 12.75V45.25C47 50.6328 42.7768 55 37.5714 55H6.14286C4.40446 55 3 53.5477 3 51.75C3 49.9523 4.40446 48.5 6.14286 48.5V42C4.40446 42 3 40.5477 3 38.75V6.25C3 4.45234 4.40446 3 6.14286 3H9.28571H37.5714ZM37.5714 42H12.4286V48.5H37.5714C39.3098 48.5 40.7143 47.0477 40.7143 45.25C40.7143 43.4523 39.3098 42 37.5714 42ZM29.9205 18.2547L29.0464 20.4281L26.7777 20.6211C26.2179 20.6719 25.992 21.3828 26.4143 21.7586L28.1429 23.2922L27.6125 25.5875C27.4848 26.1461 28.0741 26.593 28.5554 26.2883L30.5 25.0594L32.4446 26.2883C32.9259 26.593 33.5152 26.1461 33.3875 25.5875L32.8571 23.2922L34.5857 21.7586C35.008 21.3828 34.7821 20.6617 34.2223 20.6211L31.9536 20.4281L31.0795 18.2547C30.8634 17.7164 30.1366 17.7164 29.9205 18.2547ZM12.4286 22.5C12.4286 29.6805 18.0562 35.5 25 35.5C27.5143 35.5 29.8616 34.7383 31.8259 33.418C32.1402 33.2047 32.2679 32.7883 32.1304 32.4328C31.9929 32.0773 31.6196 31.8641 31.2464 31.9453C30.6473 32.0672 30.0187 32.1383 29.3804 32.1383C24.2339 32.1383 20.0598 27.8219 20.0598 22.5C20.0598 17.1781 24.2339 12.8617 29.3804 12.8617C30.0187 12.8617 30.6375 12.9328 31.2464 13.0547C31.6196 13.1359 31.983 12.9227 32.1304 12.5672C32.2777 12.2117 32.15 11.7953 31.8259 11.582C29.8616 10.2617 27.5143 9.5 25 9.5C18.0562 9.5 12.4286 15.3195 12.4286 22.5Z" fill="#323270"/>
</svg>
