<svg width="136" height="136" viewBox="0 0 136 136" fill="none" xmlns="http://www.w3.org/2000/svg">
<path d="M68 4C32.6538 4 4 32.6538 4 68C4 103.346 32.6538 132 68 132C103.346 132 132 103.346 132 68C132 32.6538 103.346 4 68 4Z" fill="#EFEFFF" fill-opacity="0.5" stroke="#323270" stroke-width="8"/>
<path d="M80.5714 42C85.7768 42 90 46.3672 90 51.75V84.25C90 89.6328 85.7768 94 80.5714 94H49.1429C47.4045 94 46 92.5477 46 90.75C46 88.9523 47.4045 87.5 49.1429 87.5V81C47.4045 81 46 79.5477 46 77.75V45.25C46 43.4523 47.4045 42 49.1429 42H52.2857H80.5714ZM80.5714 81H55.4286V87.5H80.5714C82.3098 87.5 83.7143 86.0477 83.7143 84.25C83.7143 82.4523 82.3098 81 80.5714 81ZM72.9205 57.2547L72.0464 59.4281L69.7777 59.6211C69.2179 59.6719 68.992 60.3828 69.4143 60.7586L71.1429 62.2922L70.6125 64.5875C70.4848 65.1461 71.0741 65.593 71.5554 65.2883L73.5 64.0594L75.4446 65.2883C75.9259 65.593 76.5152 65.1461 76.3875 64.5875L75.8571 62.2922L77.5857 60.7586C78.008 60.3828 77.7821 59.6617 77.2223 59.6211L74.9536 59.4281L74.0795 57.2547C73.8634 56.7164 73.1366 56.7164 72.9205 57.2547ZM55.4286 61.5C55.4286 68.6805 61.0562 74.5 68 74.5C70.5143 74.5 72.8616 73.7383 74.8259 72.418C75.1402 72.2047 75.2679 71.7883 75.1304 71.4328C74.9929 71.0773 74.6196 70.8641 74.2464 70.9453C73.6473 71.0672 73.0187 71.1383 72.3804 71.1383C67.2339 71.1383 63.0598 66.8219 63.0598 61.5C63.0598 56.1781 67.2339 51.8617 72.3804 51.8617C73.0187 51.8617 73.6375 51.9328 74.2464 52.0547C74.6196 52.1359 74.983 51.9227 75.1304 51.5672C75.2777 51.2117 75.15 50.7953 74.8259 50.582C72.8616 49.2617 70.5143 48.5 68 48.5C61.0562 48.5 55.4286 54.3195 55.4286 61.5Z" fill="#323270"/>
</svg>
