<svg width="18" height="18" viewBox="0 0 18 18" fill="none" xmlns="http://www.w3.org/2000/svg">
<path d="M4.33356 16.261L4.78852 16.0572L4.33357 16.261C4.40066 16.4108 4.4966 16.546 4.61593 16.6587C4.73526 16.7715 4.87563 16.8596 5.02902 16.9181C5.18242 16.9767 5.34584 17.0044 5.50995 16.9997C5.67406 16.9951 5.83565 16.9582 5.98549 16.8911C6.13533 16.824 6.27049 16.728 6.38326 16.6087L6.38335 16.6086L12.7582 9.85881C12.7582 9.85874 12.7583 9.85868 12.7584 9.85862C12.9777 9.62655 13.0999 9.31936 13.0999 9.00006C13.0999 8.68067 12.9776 8.37339 12.7582 8.14131L6.38544 1.39295C6.27393 1.27232 6.13972 1.17483 5.99048 1.10609L5.7813 1.56023L5.99048 1.10609C5.84007 1.03681 5.6774 0.998108 5.5119 0.992229C5.34641 0.986349 5.1814 1.01341 5.02645 1.07185C4.87151 1.13027 4.72972 1.21891 4.60932 1.3326L4.9526 1.69614L4.60932 1.33261C4.48892 1.4463 4.39231 1.58278 4.3251 1.73413L4.78207 1.93705L4.3251 1.73413C4.25789 1.88547 4.22142 2.04867 4.21782 2.21422C4.21421 2.37978 4.24354 2.5444 4.30409 2.69853C4.36418 2.85148 4.45383 2.99105 4.56789 3.10929L10.1306 9.00002L4.56594 14.8914C4.56591 14.8914 4.56588 14.8914 4.56586 14.8915C4.45313 15.0108 4.36501 15.1511 4.30651 15.3045C4.248 15.4579 4.22027 15.6213 4.22491 15.7854C4.22955 15.9495 4.26647 16.1111 4.33356 16.261Z" fill="black" stroke="black"/>
</svg>
