<svg width="14" height="15" viewBox="0 0 14 15" fill="none" xmlns="http://www.w3.org/2000/svg">
<g clip-path="url(#clip0_115_382)">
<path d="M3.83361 12.0993C3.78098 12.155 3.73984 12.2205 3.71253 12.2921C3.68522 12.3637 3.67228 12.4399 3.67445 12.5165C3.67662 12.5931 3.69385 12.6685 3.72516 12.7385C3.75647 12.8084 3.80125 12.8715 3.85694 12.9241C3.91263 12.9767 3.97815 13.0179 4.04974 13.0452C4.12133 13.0725 4.1976 13.0854 4.27419 13.0833C4.35079 13.0811 4.4262 13.0639 4.49614 13.0326C4.56607 13.0012 4.62915 12.9565 4.68178 12.9008L9.64011 7.65077C9.74251 7.54246 9.79956 7.39907 9.79956 7.25002C9.79956 7.10097 9.74251 6.95757 9.64011 6.84927L4.68178 1.59868C4.6295 1.54177 4.56643 1.49582 4.49624 1.46349C4.42605 1.43115 4.35013 1.41309 4.2729 1.41035C4.19567 1.40761 4.11867 1.42023 4.04636 1.4475C3.97405 1.47477 3.90788 1.51613 3.8517 1.56919C3.79551 1.62225 3.75042 1.68594 3.71906 1.75657C3.6877 1.8272 3.67068 1.90335 3.669 1.98061C3.66731 2.05787 3.681 2.1347 3.70926 2.20662C3.73752 2.27855 3.77979 2.34415 3.83361 2.3996L8.41394 7.25002L3.83361 12.0993Z" fill="white" stroke="white"/>
</g>
<defs>
<clipPath id="clip0_115_382">
<rect width="14" height="14" fill="white" transform="matrix(-1 0 0 -1 13.9995 14.25)"/>
</clipPath>
</defs>
</svg>
