<svg width="25" height="24" viewBox="0 0 25 24" fill="none" xmlns="http://www.w3.org/2000/svg">
<g clip-path="url(#clip0_586_48)">
<path d="M1.40831 11.8563C1.40776 13.8728 1.93464 15.8417 2.9365 17.5771L1.3125 23.5066L7.38059 21.9156C9.05895 22.8292 10.9394 23.308 12.8504 23.3081H12.8554C19.1638 23.3081 24.2989 18.1748 24.3016 11.8653C24.3028 8.80792 23.1132 5.93295 20.9519 3.76997C18.791 1.60718 15.9171 0.415458 12.8549 0.414062C6.5458 0.414062 1.41101 5.54709 1.40841 11.8563" fill="url(#paint0_linear_586_48)"/>
<path d="M0.999437 11.8527C0.998786 13.9417 1.54455 15.981 2.58213 17.7786L0.899902 23.9207L7.18558 22.2726C8.91748 23.2168 10.8674 23.7147 12.8516 23.7154H12.8567C19.3914 23.7154 24.7111 18.3975 24.7139 11.8621C24.715 8.69488 23.4826 5.71656 21.2441 3.47609C19.0053 1.23591 16.0286 0.00130233 12.8567 0C6.32092 0 1.00204 5.31721 0.999437 11.8527ZM4.74279 17.469L4.50809 17.0965C3.52148 15.5277 3.00074 13.7149 3.00148 11.8534C3.00353 6.4213 7.42437 2.00186 12.8605 2.00186C15.493 2.00298 17.9671 3.02921 19.8279 4.89116C21.6886 6.7533 22.7126 9.22865 22.7119 11.8614C22.7095 17.2935 18.2886 21.7135 12.8567 21.7135H12.8528C11.0842 21.7126 9.34958 21.2376 7.83683 20.34L7.47683 20.1265L3.74679 21.1045L4.74279 17.469Z" fill="url(#paint1_linear_586_48)"/>
<path d="M9.89343 6.89771C9.67147 6.4044 9.43789 6.39445 9.22682 6.3858C9.05398 6.37836 8.8564 6.37892 8.65901 6.37892C8.46143 6.37892 8.1404 6.45324 7.86905 6.74952C7.59743 7.04608 6.83203 7.76273 6.83203 9.22031C6.83203 10.678 7.89371 12.0866 8.04171 12.2845C8.18989 12.482 10.0913 15.5689 13.1026 16.7564C15.6053 17.7433 16.1146 17.547 16.6578 17.4975C17.2011 17.4482 18.4107 16.7811 18.6575 16.0892C18.9045 15.3975 18.9045 14.8046 18.8305 14.6807C18.7564 14.5572 18.5588 14.4831 18.2625 14.335C17.9662 14.1868 16.5096 13.4701 16.2381 13.3712C15.9664 13.2724 15.769 13.2231 15.5714 13.5198C15.3738 13.8159 14.8064 14.4831 14.6335 14.6807C14.4608 14.8787 14.2878 14.9034 13.9917 14.7552C13.6952 14.6065 12.7411 14.2941 11.6091 13.2849C10.7283 12.4996 10.1337 11.5298 9.96087 11.2331C9.78803 10.937 9.94236 10.7764 10.0909 10.6288C10.224 10.496 10.3873 10.2828 10.5356 10.1099C10.6833 9.93687 10.7326 9.81343 10.8314 9.61585C10.9303 9.41808 10.8808 9.24506 10.8068 9.09687C10.7326 8.94868 10.1569 7.48347 9.89343 6.89771Z" fill="white"/>
</g>
<defs>
<linearGradient id="paint0_linear_586_48" x1="1150.77" y1="2309.67" x2="1150.77" y2="0.414062" gradientUnits="userSpaceOnUse">
<stop stop-color="#1FAF38"/>
<stop offset="1" stop-color="#60D669"/>
</linearGradient>
<linearGradient id="paint1_linear_586_48" x1="1191.6" y1="2392.07" x2="1191.6" y2="0" gradientUnits="userSpaceOnUse">
<stop stop-color="#F9F9F9"/>
<stop offset="1" stop-color="white"/>
</linearGradient>
<clipPath id="clip0_586_48">
<rect width="23.814" height="24" fill="white" transform="translate(0.899902)"/>
</clipPath>
</defs>
</svg>
