<svg width="35" height="24" viewBox="0 0 35 24" fill="none" xmlns="http://www.w3.org/2000/svg">
<path d="M32.4599 4.44507C32.2783 3.7792 31.9241 3.17214 31.4325 2.68435C30.9409 2.19656 30.3291 1.84505 29.6581 1.66484C27.2013 1 17.3135 1 17.3135 1C17.3135 1 7.42522 1.02012 4.96843 1.68497C4.29734 1.86519 3.68554 2.21671 3.19396 2.70452C2.70238 3.19234 2.34817 3.79942 2.1666 4.46532C1.42347 8.79673 1.1352 15.3968 2.187 19.5549C2.36859 20.2208 2.72281 20.8279 3.21439 21.3157C3.70597 21.8034 4.31776 22.1549 4.98883 22.3352C7.44563 23 17.3337 23 17.3337 23C17.3337 23 27.2215 23 29.6782 22.3352C30.3493 22.155 30.9611 21.8035 31.4527 21.3157C31.9443 20.8279 32.2986 20.2208 32.4802 19.5549C33.264 15.2174 33.5055 8.62137 32.4599 4.44507Z" fill="#FF0000"/>
<path d="M14.1665 16.7147L22.3692 12.0004L14.1665 7.28613V16.7147Z" fill="white"/>
</svg>
